<?xml version="1.0" standalone="no"?><!DOCTYPE svg PUBLIC "-//W3C//DTD SVG 1.1//EN" "http://www.w3.org/Graphics/SVG/1.1/DTD/svg11.dtd"><svg t="1719485700607" class="icon" viewBox="0 0 1024 1024" version="1.1" xmlns="http://www.w3.org/2000/svg" p-id="13312" xmlns:xlink="http://www.w3.org/1999/xlink" width="200" height="200"><path d="M512 955.733333a17.066667 17.066667 0 0 1-17.066667-17.066666V699.733333H85.333333a17.066667 17.066667 0 0 1-17.066666-17.066666V341.333333a17.066667 17.066667 0 0 1 17.066666-17.066666h409.6V85.333333a17.1008 17.1008 0 0 1 29.1328-12.066133l426.666667 426.666667a17.0496 17.0496 0 0 1 0 24.132266l-426.666667 426.666667A17.066667 17.066667 0 0 1 512 955.733333zM102.4 665.6h409.6a17.066667 17.066667 0 0 1 17.066667 17.066667v214.801066L914.5344 512 529.066667 126.532267V341.333333a17.066667 17.066667 0 0 1-17.066667 17.066667H102.4v307.2z" p-id="13313"></path></svg>