<?xml version="1.0" standalone="no"?><!DOCTYPE svg PUBLIC "-//W3C//DTD SVG 1.1//EN" "http://www.w3.org/Graphics/SVG/1.1/DTD/svg11.dtd"><svg t="1719486012812" class="icon" viewBox="0 0 2730 1024" version="1.1" xmlns="http://www.w3.org/2000/svg" p-id="19812" xmlns:xlink="http://www.w3.org/1999/xlink" width="533.203125" height="200"><path d="M1741.02183 0.170638l5.460423 0.511915 5.972338 0.511915c16.039993 2.047659 30.714881 7.508082 43.000833 16.210631l764.800533 412.944509c31.568072 16.893184 61.429762 49.997 55.457424 81.735711 5.972338 31.73871-23.889352 64.842526-55.457424 81.906349L1795.455424 1006.936177a94.36294 94.36294 0 0 1-43.000833 16.039994l-5.972338 0.511914c-1.87702 0-3.583403 0.511915-5.460423 0.511915l-3.412765-0.341276a89.926346 89.926346 0 0 1-75.592734-41.123813c-1.706382-2.559573-2.559573-5.460423-3.92468-8.190635l-1.87702-4.095317a83.271455 83.271455 0 0 1-5.289785-18.428929c-0.682553-5.119147-1.365106-9.043826-1.365106-13.139143V625.730378H170.638227a56.82253 56.82253 0 0 1-56.82253-56.822529v-113.645059c0-31.397434 25.425096-56.993168 56.82253-56.993168h1478.921513V85.489752c0-4.095317 0.682553-8.019997 1.194468-11.944676a80.88252 80.88252 0 0 1 5.460423-19.623396L1658.091651 49.655724c1.365106-2.730212 2.388935-5.631061 3.92468-8.190635a88.731878 88.731878 0 0 1 75.592734-41.123813l3.412765-0.341276z" fill="#8F959E" p-id="19813"></path></svg>