<?xml version="1.0" standalone="no"?><!DOCTYPE svg PUBLIC "-//W3C//DTD SVG 1.1//EN" "http://www.w3.org/Graphics/SVG/1.1/DTD/svg11.dtd"><svg t="1718681434639" class="icon" viewBox="0 0 4722 1024" version="1.1" xmlns="http://www.w3.org/2000/svg" p-id="8973" data-spm-anchor-id="a313x.search_index.0.i4.429c3a81473XIM" xmlns:xlink="http://www.w3.org/1999/xlink" width="922.265625" height="200"><path d="M969.125544 1008.487786H0V39.556145h969.125544L484.562772 523.925014z" p-id="8974" fill="#ffffff"></path><path d="M2141.848892 36.453702h-194.484378L1528.146942 486.113994V39.556145h-154.928233v968.931641h154.928233V540.600644l422.320015 467.887142h197.392918L1701.302026 507.249385z" p-id="8975" fill="#ffffff"></path><path d="M2667.325128 331.18576c-54.680553-30.442719-118.474531-48.66957-185.370953-48.66957-69.804961 0-133.59894 15.124408-188.279492 48.66957-54.680553 33.545162-100.24768 76.009847-130.6904 130.6904-30.442719 57.782996-45.567127 121.576974-45.567127 191.381935s15.124408 136.701382 45.567127 191.381935c30.442719 54.680553 72.907404 100.24768 130.6904 130.6904 54.680553 30.442719 118.474531 48.66957 188.279492 48.66957s133.59894-15.124408 188.279493-48.66957c54.680553-30.442719 97.145238-76.009847 127.587957-130.6904 30.442719-57.782996 45.567127-121.576974 45.567127-191.381935s-18.226851-133.59894-48.66957-191.381935c-30.054914-54.874456-72.713501-100.441583-127.394054-130.6904z m-12.021966 446.363946c-18.226851 36.453702-42.464685 63.793978-72.907404 82.02083-30.442719 21.329294-66.896421 30.442719-106.258663 30.442719-39.362242 0-76.009847-9.113425-109.361106-30.442719-30.442719-21.329294-54.680553-48.66957-72.907404-82.02083-18.226851-36.453702-24.237834-76.009847-24.237833-121.576974s9.113425-88.031812 27.340276-121.576974c18.226851-36.453702 42.464685-63.793978 72.907404-82.020829 30.442719-21.329294 66.896421-30.442719 109.361106-30.442719 39.556145 0 76.009847 9.113425 106.258663 30.442719 30.442719 21.329294 54.680553 48.66957 72.907404 82.020829 18.226851 36.453702 24.237834 76.009847 24.237834 121.576974s-9.113425 85.123272-27.340277 121.576974zM3156.541564 121.576974h-148.91725v121.576974c0 18.226851-3.102443 33.351259-15.124409 42.464685-9.113425 9.113425-24.237834 15.124408-42.464684 15.124408h-72.907404v127.587957h127.587957v382.76387c0 39.556145 9.113425 76.009847 24.237833 106.258664 15.124408 30.442719 39.556145 54.680553 69.804961 69.804961 30.442719 18.226851 63.793978 24.237834 106.258664 24.237833h115.372088v-133.598939h-85.123272c-21.329294 0-39.556145-6.010983-54.680553-24.237834-12.215868-15.124408-21.329294-36.453702-21.329294-60.691536v-364.537019h164.041659v-127.587957h-164.041659V121.576974h-2.714637zM3439.057754 0h151.825791v1008.487786h-151.825791zM3764.038629 3.102443h154.928233v158.030676h-154.928233zM3764.038629 300.743041h151.825791v710.653285h-151.825791zM4690.699489 416.11513c-21.329294-42.464685-51.57811-76.009847-91.134255-97.145238-39.556145-24.237834-85.123272-36.453702-136.701382-36.453702-54.680553 0-103.350123 15.124408-145.814808 39.556145-33.351259 21.329294-60.691536 51.57811-82.02083 85.123272v-109.361106h-145.814807v710.653285h151.82579V610.405605c0-39.556145 6.010983-72.907404 21.329294-103.350123 15.124408-30.442719 36.453702-51.57811 60.691536-69.804961 27.340276-15.124408 57.782996-24.237834 94.236697-24.237834 33.351259 0 57.782996 6.010983 82.020829 21.329294s39.556145 33.351259 51.578111 57.782995c12.215868 24.237834 18.226851 54.680553 18.226851 88.031812v425.228556h151.82579V561.929938c3.296345-54.680553-8.72562-103.15622-30.248816-145.814808z" p-id="8976" fill="#ffffff"></path></svg>