<?xml version="1.0" standalone="no"?><!DOCTYPE svg PUBLIC "-//W3C//DTD SVG 1.1//EN" "http://www.w3.org/Graphics/SVG/1.1/DTD/svg11.dtd"><svg t="1718681710657" class="icon" viewBox="0 0 1024 1024" version="1.1" xmlns="http://www.w3.org/2000/svg" p-id="18193" xmlns:xlink="http://www.w3.org/1999/xlink" width="200" height="200"><path d="M892.095 825.134c-4.927-14.61-47.765-32.954-61.259-62.281-13.494-29.328-2.463-45.112-23.24-59.83-2.784-2.026-5.89-3.199-9.21-3.945 7.282-19.197 7.497-45.432 6.533-79.985-2.463-90.33-42.089-144.507-63.401-170.955-25.489-31.675-34.27-43.619-53.87-74.333-18.955-29.648-39.09-66.121-39.732-105.367-0.857-46.392-2.463-99.715-24.525-139.921-22.062-40.206-76.895-79.879-154.432-58.55-82.893 22.823-84.927 92.25-88.569 143.547-3.64 51.298 19.813 87.77 0.107 152.612-19.705 64.841-53.976 88.944-70.469 121.47-40.803 80.52-49.478 87.665-67.363 129.15-19.813 45.752-4.926 72.84-4.926 72.84l0.856 2.24c-7.068 13.01-10.816 26.022-19.17 29.54-16.707 7.04-56.332-3.625-69.826 9.812-13.495 13.438 6.532 94.81-2.464 109.847C138.14 856.062 130 855.635 130 880.057c0 24.423 26.988 21.97 132.37 57.377 105.383 35.406 124.982 25.595 149.507-4.906 4.07-5.013 6.64-10.558 8.139-16.424 32.236-2.88 64.793-5.439 83.749-5.546 42.089-0.213 100.991 13.011 128.408 19.73 3.963 10.558 9.746 19.09 17.457 23.036 22.061 10.985 73.575 9.811 104.204-19.516 30.63-29.328 107.846-67.081 117.698-76.893 9.853-9.811 25.382-17.17 20.563-31.78zM450.967 262.04c-1.178-13.864-8.782-24.422-17.029-23.783-8.246 0.64-14.03 12.478-12.851 26.236 0.642 7.678 3.32 14.397 6.961 18.663-1.285 1.173-2.463 2.24-3.641 3.306-5.998-7.785-11.031-20.263-12.316-35.514-2.25-26.341 8.032-47.03 18.742-47.884h0.75v-7.892 7.892c10.388 0 23.56 18.13 25.702 44.152 0.429 5.545 0.322 10.771-0.107 15.677a102.69 102.69 0 0 0-5.997 2.773c-0.107-1.067-0.107-2.347-0.214-3.626z m-17.532 16.925l-0.171 0.17 0.171-0.17z m-2.57 2.346l-0.172 0.17c0-0.17 0-0.17 0.172-0.17z m-10.635 8.883c0.643-0.568 1.178-1.137 1.82-1.706-0.642 0.683-1.177 1.251-1.82 1.706z m2.142-1.92c0.643-0.532 1.285-1.172 1.928-1.706-0.643 0.64-1.285 1.174-1.928 1.707z m17.564 25.17c2.677-2.24 5.247-4.586 7.71-6.826 11.46-10.451 19.17-16.85 29.452-17.277 1.178-0.106 2.356-0.106 3.534-0.106 17.457 0 35.128 6.185 59.117 20.902 2.142 1.28 4.177 2.453 6.105 3.626a494.117 494.117 0 0 1-19.17 16.317c-17.029 13.758-29.666 22.29-36.199 25.916-4.82-2.133-13.601-6.932-26.667-15.89-14.244-9.812-25.167-18.984-27.952-21.757 1.071-1.706 2.463-3.52 4.07-4.905z m102.812-36.868c0.535 0.512 1.178 1.023 1.713 1.535-0.535-0.512-1.07-1.023-1.713-1.535z m1.82-40.558c-10.28-0.533-20.026 10.451-21.74 24.529a26.612 26.612 0 0 0-0.107 6.505c-3.963-1.6-7.925-2.88-11.78-4.052-0.429-4.693-0.429-9.599 0.214-14.504 1.499-12.798 6.532-24.743 13.922-33.38 6.64-7.68 14.35-11.945 21.74-11.945h1.071c5.57 0.32 10.603 2.986 14.78 7.998 7.604 8.958 11.03 23.57 9.21 39.033-1.5 12.798-6.533 24.742-13.923 33.38-0.32 0.32-0.642 0.747-0.963 1.067l-0.964-0.64c-1.5-0.96-2.999-1.813-4.498-2.666 4.498-4.48 7.71-11.198 8.675-18.877 1.499-14.077-5.355-25.915-15.637-26.448z m4.284 44.578c-0.642-0.512-1.285-1.194-1.927-1.706 0.75 0.512 1.392 1.024 1.927 1.706z m-14.458-8.02c-0.527-0.34-1.186-0.682-1.713-1.023 0.527 0.34 1.054 0.682 1.713 1.023z m-3.962-1.951c-0.623-0.341-1.09-0.512-1.714-0.853 0.623 0.34 1.246 0.682 1.714 0.853z m-25.618-8.83c0.172 0 0.343 0.17 0.686 0.17-0.343-0.17-0.514-0.17-0.686-0.17z m54.962 24.56c-0.964-0.533-1.928-1.173-2.891-1.706 0.963 0.64 1.927 1.173 2.891 1.706z m7.283 4.767c-0.536-0.512-1.178-1.023-1.821-1.535 0.643 0.512 1.178 1.023 1.82 1.535z m-2.035-1.354c-0.75-0.525-1.607-1.181-2.463-1.706 0.856 0.525 1.713 1.18 2.463 1.706z m-2.57-1.706z m35.02 542.726c-19.277 17.49-34.057 24.742-44.873 31.567-20.241 12.798-52.906 20.583-86.855 15.464-21.526-3.2-40.804-12.158-57.725-22.29-4.07-7.891-8.14-14.29-11.138-18.13-7.497-9.917-58.474-81.69-90.389-126.483-1.713-9.171-2.57-18.13-2.463-26.661 0.643-52.47 15.315-113.792 27.31-128.19 3.64-4.372 30.415-80.305 36.733-96.409 11.674-29.327 29.666-63.774 39.09-83.93 6.426-16.638 7.39-28.262 6.533-36.154 10.603 10.985 60.295 48.311 78.073 48.311h0.321c14.78-0.32 71.433-46.285 90.818-67.4 1.82 7.678 11.352 22.928 17.456 37.646 17.778 42.872 38.448 123.07 71.54 167.542 2.25 3.093 7.819 13.544 8.89 17.597 12.851 45.964 10.28 80.731 2.356 148.985-3.534-1.173-7.604-2.133-12.959-2.56-22.597-1.812-30.63 7.36-30.63 7.36s-1.285 50.55-3.748 97.368c-1.927 2.133-3.962 4.266-5.997 6.399-11.566 11.518-22.276 21.436-32.343 29.968z" fill="#ffffff" p-id="18194"></path></svg>