<?xml version="1.0" standalone="no"?><!DOCTYPE svg PUBLIC "-//W3C//DTD SVG 1.1//EN" "http://www.w3.org/Graphics/SVG/1.1/DTD/svg11.dtd"><svg t="1718681632325" class="icon" viewBox="0 0 3064 1024" version="1.1" xmlns="http://www.w3.org/2000/svg" p-id="15440" data-spm-anchor-id="a313x.search_index.0.i9.429c3a81473XIM" xmlns:xlink="http://www.w3.org/1999/xlink" width="598.4375" height="200"><path d="M832.57604358 206.09942627C742.73112028 238.18689873 523.46672315 324.82307531 515.97964569 331.24057007 511.16652529 334.98410845 509.02735992 351.56263636 509.02735992 380.97615312c0 43.8528793 0 44.38767097 17.11331892 55.08349445l16.57852791 10.69582415-16.57852791 8.55665946L509.02735992 464.40358233v44.92246129c0 42.2485056 1.06958269 45.99204399 13.36978053 54.01391312L535.76692098 571.89661552l-13.36978053 10.69582484C510.09694261 592.21868182 509.02735992 596.49701189 509.02735992 634.46718743c0 47.59641767 2.67395637 51.33995674 45.45725298 70.05764933 82.35784651 35.83101153 271.6739359 114.98011066 298.94828798 124.60635213l31.55268212 11.23061583 29.94830776-11.23061584c54.01391244-19.78727462 323.54868366-140.11529802 337.45325518-150.27633049 11.76540683-9.09145047 13.36978053-14.43936254 14.97415423-52.40953875 1.60437368-40.10934091 1.06958269-42.78329729-12.30019785-53.47912143l-13.90457154-11.23061516 13.36977986-9.09145114c13.36978053-8.55665946 13.90457153-11.23061515 13.90457154-54.01391244 0-44.92246198 0-45.45725298-16.57852724-54.01391243l-16.57852792-8.55665947 12.30019786-8.55665946c19.25248361-12.83498885 20.8568573-16.57852792 20.8568573-60.9661982 0-40.10934091-0.53479101-41.7137146-14.97415355-49.20079137-35.83101153-18.7176926-321.40951896-126.74551748-340.66200257-129.41947319-16.04373623-2.1391647-35.83101153 2.67395637-80.21868249 18.18290092z m52.40953942 34.22663783c11.23061515 4.27832939 21.3916483 3.74353838 36.90059353-0.53479169 25.1351867-8.02186845 27.80914307-6.41749477 20.85685729 11.23061584-4.81312106 12.30019784-3.74353838 13.90457153 16.04373624 20.3220663 25.1351867 8.55665946 18.7176926 16.04373623-14.97415422 16.04373622-20.8568573 0-22.46123099 1.06958269-28.87872509 19.78727462l-6.41749475 19.78727529-11.23061515-19.78727529c-12.30019784-21.3916483-20.8568573-25.1351867-58.82703351-25.13518669-29.41351675 0-28.34393407-5.88270308 3.74353837-16.0437369 13.90457153-4.27832939 19.78727462-8.55665946 17.64810993-13.90457153-10.69582415-26.20476938-10.69582415-25.66997837 0-21.39164831 5.34791208 2.67395637 17.11331891 6.95228576 25.13518736 9.62624214z m-96.26241871 68.98806598c11.23061515 3.20874739 25.1351867 10.16103315 31.01789043 16.04373691C843.80665941 349.423471 802.0929448 372.95428467 733.63966982 372.95428467c-87.17096759 0-125.67593481-38.50496722-61.50098989-61.50098921 25.66997837-9.09145047 88.24055027-10.16103315 116.58448436-2.13916537zM952.90406698 380.97615312C952.90406698 383.65010882 904.23806661 453.17296649 902.09890124 453.17296649c-4.27832939 0-107.49303388-44.38767097-111.23657226-47.59641769-2.1391647-2.1391647 27.80914307-9.09145047 66.84890196-14.97415421C933.11679169 378.83698774 952.90406698 376.69782305 952.90406698 380.97615312zM2127.30556985 252.62626194c-6.95228576 6.95228576-8.55665946 20.3220663-8.55665946 67.91848398 0 54.01391244-0.53479101 58.82703351-9.09145045 55.08349512-36.90059353-15.50894522-55.08349513-19.78727462-79.68389083-17.11331891-74.33597873 7.48707677-126.74551748 66.31411029-127.28030849 142.78925371-0.53479101 57.22265982 27.27435206 102.67991281 79.14909981 129.95426488 28.34393407 14.97415422 88.24055027 16.04373623 114.44531965 2.13916469 17.11331891-9.09145047 17.64810992-9.09145047 31.55268145 1.60437369 18.7176926 14.43936254 30.48309945 13.36978053 43.85287929-3.20874738 10.69582415-13.90457153 11.23061515-20.3220663 11.23061516-186.10734201 0-127.2803085-2.1391647-174.87672686-6.95228577-185.03775999-8.02186845-16.57852792-35.29621984-20.8568573-48.66600036-8.02186778zM2080.24394318 431.78131818c18.7176926 11.76540683 38.50496722 47.06162668 38.50496721 69.52285766 0 22.46123099-19.78727462 57.75745084-38.50496721 69.52285767-36.90059353 22.46123099-87.17096759 7.48707677-106.95824221-32.08747313-35.83101153-70.59244035 41.1789236-147.06758379 106.95824221-106.9582422zM2235.86818643 253.16105294c-9.62624214 11.76540683-8.55665946 43.31808829 1.60437367 53.47912144 11.76540683 11.76540683 36.36580252 11.23061515 45.45725299-1.06958268 9.62624214-12.83498885 8.55665946-42.2485056-1.60437369-52.40953876-10.69582415-11.23061515-36.36580252-10.69582415-45.45725297 0zM1459.35134526 366.53678991c-8.02186845 8.55665946-9.09145047 26.20476938-9.09145047 135.83696795 0 114.98011066 1.06958269 126.21072649 9.62624147 134.23259493 12.30019784 11.23061515 21.92643998 11.23061515 37.43538521 0.53479101 11.23061515-7.48707677 11.76540683-12.30019784 11.76540684-71.12723136 0-56.68786883 1.06958269-65.24452828 13.90457153-90.37971497 16.04373623-32.62226413 39.03975822-51.87474774 67.91848396-56.68786882 25.1351867-4.81312106 38.50496722-22.46123099 31.01789047-42.2485056-9.62624214-24.60039569-46.52683567-25.1351867-89.84492397-1.06958201-17.11331891 9.09145047-22.996022 10.69582415-22.99602199 5.34791208 0-9.09145047-20.3220663-24.06560468-32.62226414-24.06560469-4.81312106 0-12.30019784 4.27832939-17.11331891 9.62624148zM1712.30758924 361.72366951c-62.03578089 19.25248361-101.61033012 73.26639606-101.61033081 139.58050634 0 100.0059571 87.70575859 164.71569369 184.50296832 136.37175896 40.10934091-11.23061515 68.98806667-37.97017621 62.03578089-57.22265983-5.34791208-15.50894522-33.15705515-19.25248361-51.87474774-7.48707676-35.83101153 24.06560468-97.86679174 11.23061515-119.79323173-24.6003957-5.88270308-9.62624214-10.69582415-19.25248361-10.69582415-21.92643998 0-2.1391647 43.31808829-3.74353838 96.26241805-3.74353839 90.37971497 0 96.79720973-0.53479101 107.49303387-11.23061516 9.09145047-9.09145047 10.16103315-14.97415422 7.48707745-33.15705513-5.88270308-32.62226413-26.20476938-70.05764867-49.20079204-88.77534129-32.62226413-26.73956037-87.17096759-39.03975822-124.60635211-27.80914306z m56.15307712 54.54870344c27.80914307 8.02186845 48.66600037 22.996022 58.82703351 42.7832973l8.55665947 15.50894455h-82.89263819c-80.75347282 0-82.35784651 0-79.68389082-11.23061517 5.88270308-21.92643998 39.5745499-47.06162668 71.12723136-52.40953875 1.60437368-0.53479101 12.30019784 2.1391647 24.06560467 5.34791207zM2236.93776842 370.81511997c-10.69582415 13.36978053-11.23061515 20.8568573-11.23061515 128.34989118 0 75.40556074 2.1391647 118.72364903 6.41749476 127.81509951 8.02186845 17.64810992 27.27435206 22.46123099 44.38767031 11.23061583L2289.88209886 629.65406703V503.97813155c0-118.72364903-0.53479101-126.21072649-10.69582416-136.37175896-14.43936254-14.43936254-29.41351675-13.36978053-42.24850627 3.20874738zM2402.18825381 361.72366951c-47.06162668 14.97415422-69.52285766 42.2485056-69.52285766 82.35784651 0 40.64413192 35.29621984 71.12723136 93.58846166 81.82305551 22.996022 3.74353838 61.5009892 21.3916483 61.50098989 27.80914307-0.53479101 14.97415422-24.60039569 27.80914307-54.01391243 27.80914306-14.97415422 0-31.55268145-5.34791208-51.33995674-16.5785279l-29.41351676-17.11331823-13.90457154 10.69582414c-29.41351675 21.3916483-16.57852792 46.52683567 35.83101152 72.19681336 18.7176926 9.09145047 33.69184614 12.30019784 62.5705719 12.30019785 32.62226413 0 41.1789236-2.1391647 63.64015391-16.04373622 60.4314072-37.4353852 60.4314072-106.4234512-1e-8-140.11529736-11.76540683-6.41749477-38.50496722-15.50894522-59.36182451-20.32206628-46.52683567-10.16103315-57.22265982-19.78727462-41.17892291-35.83101152 14.97415422-14.97415422 48.13120936-14.97415422 72.73160436 0.53479168 39.03975822 24.06560468 75.94035243 3.74353838 57.22265983-32.08747313-13.90457153-25.66997837-93.58846236-49.20079137-128.34989052-37.43538454z" fill="#ffffff" p-id="15441"></path></svg>