<?xml version="1.0" standalone="no"?><!DOCTYPE svg PUBLIC "-//W3C//DTD SVG 1.1//EN" "http://www.w3.org/Graphics/SVG/1.1/DTD/svg11.dtd"><svg t="1718956960317" class="icon" viewBox="0 0 1024 1024" version="1.1" xmlns="http://www.w3.org/2000/svg" p-id="4046" xmlns:xlink="http://www.w3.org/1999/xlink" width="200" height="200"><path d="M989.866667 512m-17.066667 0a17.066667 17.066667 0 1 0 34.133333 0 17.066667 17.066667 0 1 0-34.133333 0Z" fill="#2c2c2c" p-id="4047"></path><path d="M921.6 512m-17.066667 0a17.066667 17.066667 0 1 0 34.133334 0 17.066667 17.066667 0 1 0-34.133334 0Z" fill="#2c2c2c" p-id="4048"></path><path d="M921.6 580.266667m-17.066667 0a17.066667 17.066667 0 1 0 34.133334 0 17.066667 17.066667 0 1 0-34.133334 0Z" fill="#2c2c2c" p-id="4049"></path><path d="M921.6 443.733333m-17.066667 0a17.066667 17.066667 0 1 0 34.133334 0 17.066667 17.066667 0 1 0-34.133334 0Z" fill="#2c2c2c" p-id="4050"></path><path d="M853.333333 580.266667m-17.066666 0a17.066667 17.066667 0 1 0 34.133333 0 17.066667 17.066667 0 1 0-34.133333 0Z" fill="#2c2c2c" p-id="4051"></path><path d="M853.333333 648.533333m-17.066666 0a17.066667 17.066667 0 1 0 34.133333 0 17.066667 17.066667 0 1 0-34.133333 0Z" fill="#2c2c2c" p-id="4052"></path><path d="M853.333333 443.733333m-17.066666 0a17.066667 17.066667 0 1 0 34.133333 0 17.066667 17.066667 0 1 0-34.133333 0Z" fill="#2c2c2c" p-id="4053"></path><path d="M853.333333 375.466667m-17.066666 0a17.066667 17.066667 0 1 0 34.133333 0 17.066667 17.066667 0 1 0-34.133333 0Z" fill="#2c2c2c" p-id="4054"></path><path d="M785.066667 580.266667m-17.066667 0a17.066667 17.066667 0 1 0 34.133333 0 17.066667 17.066667 0 1 0-34.133333 0Z" fill="#2c2c2c" p-id="4055"></path><path d="M785.066667 648.533333m-17.066667 0a17.066667 17.066667 0 1 0 34.133333 0 17.066667 17.066667 0 1 0-34.133333 0Z" fill="#2c2c2c" p-id="4056"></path><path d="M785.066667 716.8m-17.066667 0a17.066667 17.066667 0 1 0 34.133333 0 17.066667 17.066667 0 1 0-34.133333 0Z" fill="#2c2c2c" p-id="4057"></path><path d="M785.066667 443.733333m-17.066667 0a17.066667 17.066667 0 1 0 34.133333 0 17.066667 17.066667 0 1 0-34.133333 0Z" fill="#2c2c2c" p-id="4058"></path><path d="M785.066667 375.466667m-17.066667 0a17.066667 17.066667 0 1 0 34.133333 0 17.066667 17.066667 0 1 0-34.133333 0Z" fill="#2c2c2c" p-id="4059"></path><path d="M785.066667 307.2m-17.066667 0a17.066667 17.066667 0 1 0 34.133333 0 17.066667 17.066667 0 1 0-34.133333 0Z" fill="#2c2c2c" p-id="4060"></path><path d="M716.8 580.266667m-17.066667 0a17.066667 17.066667 0 1 0 34.133334 0 17.066667 17.066667 0 1 0-34.133334 0Z" fill="#2c2c2c" p-id="4061"></path><path d="M716.8 648.533333m-17.066667 0a17.066667 17.066667 0 1 0 34.133334 0 17.066667 17.066667 0 1 0-34.133334 0Z" fill="#2c2c2c" p-id="4062"></path><path d="M716.8 716.8m-17.066667 0a17.066667 17.066667 0 1 0 34.133334 0 17.066667 17.066667 0 1 0-34.133334 0Z" fill="#2c2c2c" p-id="4063"></path><path d="M716.8 785.066667m-17.066667 0a17.066667 17.066667 0 1 0 34.133334 0 17.066667 17.066667 0 1 0-34.133334 0Z" fill="#2c2c2c" p-id="4064"></path><path d="M716.8 443.733333m-17.066667 0a17.066667 17.066667 0 1 0 34.133334 0 17.066667 17.066667 0 1 0-34.133334 0Z" fill="#2c2c2c" p-id="4065"></path><path d="M716.8 375.466667m-17.066667 0a17.066667 17.066667 0 1 0 34.133334 0 17.066667 17.066667 0 1 0-34.133334 0Z" fill="#2c2c2c" p-id="4066"></path><path d="M716.8 307.2m-17.066667 0a17.066667 17.066667 0 1 0 34.133334 0 17.066667 17.066667 0 1 0-34.133334 0Z" fill="#2c2c2c" p-id="4067"></path><path d="M716.8 238.933333m-17.066667 0a17.066667 17.066667 0 1 0 34.133334 0 17.066667 17.066667 0 1 0-34.133334 0Z" fill="#2c2c2c" p-id="4068"></path><path d="M648.533333 580.266667m-17.066666 0a17.066667 17.066667 0 1 0 34.133333 0 17.066667 17.066667 0 1 0-34.133333 0Z" fill="#2c2c2c" p-id="4069"></path><path d="M648.533333 648.533333m-17.066666 0a17.066667 17.066667 0 1 0 34.133333 0 17.066667 17.066667 0 1 0-34.133333 0Z" fill="#2c2c2c" p-id="4070"></path><path d="M648.533333 716.8m-17.066666 0a17.066667 17.066667 0 1 0 34.133333 0 17.066667 17.066667 0 1 0-34.133333 0Z" fill="#2c2c2c" p-id="4071"></path><path d="M648.533333 785.066667m-17.066666 0a17.066667 17.066667 0 1 0 34.133333 0 17.066667 17.066667 0 1 0-34.133333 0Z" fill="#2c2c2c" p-id="4072"></path><path d="M648.533333 853.333333m-17.066666 0a17.066667 17.066667 0 1 0 34.133333 0 17.066667 17.066667 0 1 0-34.133333 0Z" fill="#2c2c2c" p-id="4073"></path><path d="M648.533333 443.733333m-17.066666 0a17.066667 17.066667 0 1 0 34.133333 0 17.066667 17.066667 0 1 0-34.133333 0Z" fill="#2c2c2c" p-id="4074"></path><path d="M648.533333 375.466667m-17.066666 0a17.066667 17.066667 0 1 0 34.133333 0 17.066667 17.066667 0 1 0-34.133333 0Z" fill="#2c2c2c" p-id="4075"></path><path d="M648.533333 307.2m-17.066666 0a17.066667 17.066667 0 1 0 34.133333 0 17.066667 17.066667 0 1 0-34.133333 0Z" fill="#2c2c2c" p-id="4076"></path><path d="M648.533333 238.933333m-17.066666 0a17.066667 17.066667 0 1 0 34.133333 0 17.066667 17.066667 0 1 0-34.133333 0Z" fill="#2c2c2c" p-id="4077"></path><path d="M648.533333 170.666667m-17.066666 0a17.066667 17.066667 0 1 0 34.133333 0 17.066667 17.066667 0 1 0-34.133333 0Z" fill="#2c2c2c" p-id="4078"></path><path d="M580.266667 580.266667m-17.066667 0a17.066667 17.066667 0 1 0 34.133333 0 17.066667 17.066667 0 1 0-34.133333 0Z" fill="#2c2c2c" p-id="4079"></path><path d="M580.266667 648.533333m-17.066667 0a17.066667 17.066667 0 1 0 34.133333 0 17.066667 17.066667 0 1 0-34.133333 0Z" fill="#2c2c2c" p-id="4080"></path><path d="M580.266667 716.8m-17.066667 0a17.066667 17.066667 0 1 0 34.133333 0 17.066667 17.066667 0 1 0-34.133333 0Z" fill="#2c2c2c" p-id="4081"></path><path d="M580.266667 785.066667m-17.066667 0a17.066667 17.066667 0 1 0 34.133333 0 17.066667 17.066667 0 1 0-34.133333 0Z" fill="#2c2c2c" p-id="4082"></path><path d="M580.266667 853.333333m-17.066667 0a17.066667 17.066667 0 1 0 34.133333 0 17.066667 17.066667 0 1 0-34.133333 0Z" fill="#2c2c2c" p-id="4083"></path><path d="M580.266667 921.6m-17.066667 0a17.066667 17.066667 0 1 0 34.133333 0 17.066667 17.066667 0 1 0-34.133333 0Z" fill="#2c2c2c" p-id="4084"></path><path d="M580.266667 443.733333m-17.066667 0a17.066667 17.066667 0 1 0 34.133333 0 17.066667 17.066667 0 1 0-34.133333 0Z" fill="#2c2c2c" p-id="4085"></path><path d="M580.266667 375.466667m-17.066667 0a17.066667 17.066667 0 1 0 34.133333 0 17.066667 17.066667 0 1 0-34.133333 0Z" fill="#2c2c2c" p-id="4086"></path><path d="M580.266667 307.2m-17.066667 0a17.066667 17.066667 0 1 0 34.133333 0 17.066667 17.066667 0 1 0-34.133333 0Z" fill="#2c2c2c" p-id="4087"></path><path d="M580.266667 238.933333m-17.066667 0a17.066667 17.066667 0 1 0 34.133333 0 17.066667 17.066667 0 1 0-34.133333 0Z" fill="#2c2c2c" p-id="4088"></path><path d="M580.266667 170.666667m-17.066667 0a17.066667 17.066667 0 1 0 34.133333 0 17.066667 17.066667 0 1 0-34.133333 0Z" fill="#2c2c2c" p-id="4089"></path><path d="M580.266667 102.4m-17.066667 0a17.066667 17.066667 0 1 0 34.133333 0 17.066667 17.066667 0 1 0-34.133333 0Z" fill="#2c2c2c" p-id="4090"></path><path d="M853.333333 512m-17.066666 0a17.066667 17.066667 0 1 0 34.133333 0 17.066667 17.066667 0 1 0-34.133333 0Z" fill="#2c2c2c" p-id="4091"></path><path d="M785.066667 512m-17.066667 0a17.066667 17.066667 0 1 0 34.133333 0 17.066667 17.066667 0 1 0-34.133333 0Z" fill="#2c2c2c" p-id="4092"></path><path d="M716.8 512m-17.066667 0a17.066667 17.066667 0 1 0 34.133334 0 17.066667 17.066667 0 1 0-34.133334 0Z" fill="#2c2c2c" p-id="4093"></path><path d="M648.533333 512m-17.066666 0a17.066667 17.066667 0 1 0 34.133333 0 17.066667 17.066667 0 1 0-34.133333 0Z" fill="#2c2c2c" p-id="4094"></path><path d="M580.266667 512m-17.066667 0a17.066667 17.066667 0 1 0 34.133333 0 17.066667 17.066667 0 1 0-34.133333 0Z" fill="#2c2c2c" p-id="4095"></path><path d="M512 580.266667m-17.066667 0a17.066667 17.066667 0 1 0 34.133334 0 17.066667 17.066667 0 1 0-34.133334 0Z" fill="#2c2c2c" p-id="4096"></path><path d="M512 443.733333m-17.066667 0a17.066667 17.066667 0 1 0 34.133334 0 17.066667 17.066667 0 1 0-34.133334 0Z" fill="#2c2c2c" p-id="4097"></path><path d="M512 512m-17.066667 0a17.066667 17.066667 0 1 0 34.133334 0 17.066667 17.066667 0 1 0-34.133334 0Z" fill="#2c2c2c" p-id="4098"></path><path d="M443.733333 580.266667m-17.066666 0a17.066667 17.066667 0 1 0 34.133333 0 17.066667 17.066667 0 1 0-34.133333 0Z" fill="#2c2c2c" p-id="4099"></path><path d="M443.733333 443.733333m-17.066666 0a17.066667 17.066667 0 1 0 34.133333 0 17.066667 17.066667 0 1 0-34.133333 0Z" fill="#2c2c2c" p-id="4100"></path><path d="M443.733333 512m-17.066666 0a17.066667 17.066667 0 1 0 34.133333 0 17.066667 17.066667 0 1 0-34.133333 0Z" fill="#2c2c2c" p-id="4101"></path><path d="M375.466667 580.266667m-17.066667 0a17.066667 17.066667 0 1 0 34.133333 0 17.066667 17.066667 0 1 0-34.133333 0Z" fill="#2c2c2c" p-id="4102"></path><path d="M375.466667 443.733333m-17.066667 0a17.066667 17.066667 0 1 0 34.133333 0 17.066667 17.066667 0 1 0-34.133333 0Z" fill="#2c2c2c" p-id="4103"></path><path d="M375.466667 512m-17.066667 0a17.066667 17.066667 0 1 0 34.133333 0 17.066667 17.066667 0 1 0-34.133333 0Z" fill="#2c2c2c" p-id="4104"></path><path d="M307.2 580.266667m-17.066667 0a17.066667 17.066667 0 1 0 34.133334 0 17.066667 17.066667 0 1 0-34.133334 0Z" fill="#2c2c2c" p-id="4105"></path><path d="M307.2 443.733333m-17.066667 0a17.066667 17.066667 0 1 0 34.133334 0 17.066667 17.066667 0 1 0-34.133334 0Z" fill="#2c2c2c" p-id="4106"></path><path d="M307.2 512m-17.066667 0a17.066667 17.066667 0 1 0 34.133334 0 17.066667 17.066667 0 1 0-34.133334 0Z" fill="#2c2c2c" p-id="4107"></path><path d="M238.933333 580.266667m-17.066666 0a17.066667 17.066667 0 1 0 34.133333 0 17.066667 17.066667 0 1 0-34.133333 0Z" fill="#2c2c2c" p-id="4108"></path><path d="M238.933333 443.733333m-17.066666 0a17.066667 17.066667 0 1 0 34.133333 0 17.066667 17.066667 0 1 0-34.133333 0Z" fill="#2c2c2c" p-id="4109"></path><path d="M238.933333 512m-17.066666 0a17.066667 17.066667 0 1 0 34.133333 0 17.066667 17.066667 0 1 0-34.133333 0Z" fill="#2c2c2c" p-id="4110"></path><path d="M170.666667 580.266667m-17.066667 0a17.066667 17.066667 0 1 0 34.133333 0 17.066667 17.066667 0 1 0-34.133333 0Z" fill="#2c2c2c" p-id="4111"></path><path d="M170.666667 443.733333m-17.066667 0a17.066667 17.066667 0 1 0 34.133333 0 17.066667 17.066667 0 1 0-34.133333 0Z" fill="#2c2c2c" p-id="4112"></path><path d="M170.666667 512m-17.066667 0a17.066667 17.066667 0 1 0 34.133333 0 17.066667 17.066667 0 1 0-34.133333 0Z" fill="#2c2c2c" p-id="4113"></path><path d="M102.4 580.266667m-17.066667 0a17.066667 17.066667 0 1 0 34.133334 0 17.066667 17.066667 0 1 0-34.133334 0Z" fill="#2c2c2c" p-id="4114"></path><path d="M102.4 443.733333m-17.066667 0a17.066667 17.066667 0 1 0 34.133334 0 17.066667 17.066667 0 1 0-34.133334 0Z" fill="#2c2c2c" p-id="4115"></path><path d="M102.4 512m-17.066667 0a17.066667 17.066667 0 1 0 34.133334 0 17.066667 17.066667 0 1 0-34.133334 0Z" fill="#2c2c2c" p-id="4116"></path><path d="M34.133333 580.266667m-17.066666 0a17.066667 17.066667 0 1 0 34.133333 0 17.066667 17.066667 0 1 0-34.133333 0Z" fill="#2c2c2c" p-id="4117"></path><path d="M34.133333 443.733333m-17.066666 0a17.066667 17.066667 0 1 0 34.133333 0 17.066667 17.066667 0 1 0-34.133333 0Z" fill="#2c2c2c" p-id="4118"></path><path d="M34.133333 512m-17.066666 0a17.066667 17.066667 0 1 0 34.133333 0 17.066667 17.066667 0 1 0-34.133333 0Z" fill="#2c2c2c" p-id="4119"></path></svg>