<?xml version="1.0" standalone="no"?><!DOCTYPE svg PUBLIC "-//W3C//DTD SVG 1.1//EN" "http://www.w3.org/Graphics/SVG/1.1/DTD/svg11.dtd"><svg t="1719481246559" class="icon" viewBox="0 0 1024 1024" version="1.1" xmlns="http://www.w3.org/2000/svg" p-id="9885" xmlns:xlink="http://www.w3.org/1999/xlink" width="200" height="200"><path d="M983.900932 0.00005L578.610846 0.200045c-24.799393-1.699958-49.098799 7.499817-66.698368 25.099386L25.124386 512.087523c-33.499181 33.499181-33.499181 88.197842 0 121.697023l365.091069 365.091069c33.499181 33.499181 88.197842 33.499181 121.697023 0l486.788092-486.788092c17.599569-17.599569 26.699347-41.898975 25.099386-66.698369l0.199995-405.290085c-1.399966-21.499474-18.599545-38.699053-40.099019-40.099019zM818.204985 395.490375c-49.998777 49.998777-130.996795 49.998777-180.995572 0s-49.998777-130.996795 0-180.995572 130.996795-49.998777 180.995572 0 49.998777 130.996795 0 180.995572z" p-id="9886"></path></svg>