<?xml version="1.0" standalone="no"?>
<!DOCTYPE svg PUBLIC "-//W3C//DTD SVG 20010904//EN"
 "http://www.w3.org/TR/2001/REC-SVG-20010904/DTD/svg10.dtd">
<svg version="1.0" xmlns="http://www.w3.org/2000/svg"
 width="738.000000pt" height="772.000000pt" viewBox="0 0 738.000000 772.000000"
 preserveAspectRatio="xMidYMid meet">

<g transform="translate(0.000000,772.000000) scale(0.100000,-0.100000)"
fill="#000000" stroke="none">
<path d="M680 7696 c-86 -19 -129 -35 -220 -82 -197 -101 -336 -264 -412 -484
-32 -93 -33 -99 -33 -260 0 -145 3 -174 23 -240 80 -254 262 -452 503 -549
158 -63 81 -61 1958 -61 l1706 0 400 836 c220 460 402 840 403 845 6 15 -4262
9 -4328 -5z"/>
<path d="M4231 4793 c-300 -626 -587 -1225 -638 -1331 l-92 -193 1367 4 c1351
3 1368 3 1452 24 273 68 478 180 660 363 188 187 309 413 367 683 25 117 25
399 -1 517 -55 255 -173 475 -353 661 -154 159 -322 266 -523 333 -206 69
-198 68 -985 73 l-710 4 -544 -1138z"/>
<path d="M725 5593 c-259 -36 -509 -218 -628 -458 -69 -138 -82 -200 -82 -385
1 -152 3 -171 28 -245 83 -247 273 -452 496 -536 155 -57 57 -54 1411 -56
l1245 -3 400 836 c220 460 402 840 403 845 4 9 -3211 10 -3273 2z"/>
<path d="M710 3479 c-258 -43 -495 -221 -618 -464 -63 -127 -77 -193 -77 -375
0 -161 1 -167 33 -260 80 -229 231 -400 442 -499 170 -79 116 -75 950 -78
l745 -3 400 836 c220 460 402 840 403 845 5 12 -2207 9 -2278 -2z"/>
<path d="M2655 1503 c-346 -724 -649 -1357 -672 -1405 l-42 -88 2097 3 2097 3
100 22 c280 65 500 186 701 386 206 207 333 445 391 733 24 122 24 394 0 516
-42 211 -132 412 -258 581 -210 279 -489 456 -848 538 l-96 22 -1420 3 -1420
3 -630 -1317z"/>
</g>
</svg>
